<?xml version="1.0" encoding="UTF-8"?>
<svg id="Layer_2" data-name="Layer 2" xmlns="http://www.w3.org/2000/svg" viewBox="0 0 72.55 80.48">
  <defs>
    <style>
      .cls-1 {
        fill: #00a3e1;
        stroke-width: 0px;
      }
    </style>
  </defs>
  <g id="Colo_Opt2" data-name="Colo Opt2">
    <g>
      <path class="cls-1" d="m71.85,62.03l-.03-.08c-.17-.5-.61-.99-1.08-1.5-.24-.26-.48-.52-.7-.8-3.91-4.97-6.22-9.94-7.05-15.19-.51-3.2-.62-6.49-.72-9.68l-.04-1.3c-.41-11.71-7.52-21.06-18.56-24.38-2.16-.65-2.98-1.81-2.83-4,.17-2.42-.71-3.97-2.7-4.74-1.45-.56-2.78-.49-3.87.21-1.29.83-2.1,2.52-2.22,4.64-.01.16-.02.31-.02.46-.04,1.16-.09,2.76-2.31,3.31-11.55,2.88-19.37,13.83-19.02,26.63.26,9.58-2.7,18.11-8.8,25.36l-.19.22c-1.38,1.64-2.2,2.73-1.41,4.38.9,1.87,2.47,1.99,4.99,2,7.66-.02,15.32-.02,22.98-.01h26.13c1.35,0,2.69.01,4.04.02,3.55.03,7.23.06,10.82-.12,1.15-.06,2.75-.95,3.15-1.76.4-.78-.18-2.53-.56-3.68Zm-61.98-.8l.58-1.17c.33-.65.66-1.29.98-1.91.67-1.29,1.3-2.51,1.86-3.76,2.47-5.54,3.65-11.88,3.59-19.4-.06-8.62,3.63-14.93,10.98-18.74,5.58-2.9,12.33-2.72,18.07.48,5.77,3.21,9.51,8.89,9.98,15.2.09,1.12.16,2.24.23,3.35.28,4.19.56,8.53,1.42,12.64.57,2.79,1.72,5.46,2.93,8.29.55,1.28,1.11,2.59,1.62,3.93l.42,1.09H9.87Z"/>
      <path class="cls-1" d="m45.88,72.63c-.25,1.65-1.03,3.24-2.25,4.59-1.77,1.96-4.26,3.15-6.83,3.25-2.49.1-4.88-.81-6.74-2.58-1.51-1.43-2.5-3.26-2.89-5.26h18.71Z"/>
    </g>
  </g>
</svg>