<?xml version="1.0" encoding="UTF-8"?>
<svg id="Layer_2" data-name="Layer 2" xmlns="http://www.w3.org/2000/svg" viewBox="0 0 83.58 68.61">
  <defs>
    <style>
      .cls-1 {
        fill: #f8f8f8;
        stroke-width: 0px;
      }
    </style>
  </defs>
  <g id="Colo_Opt2" data-name="Colo Opt2">
    <path class="cls-1" d="m76.52,14.11c-6.69-7.53-15.71-12.08-26.83-13.53-3-.39-5.89-.58-8.68-.58-12.44,0-22.83,3.88-31.59,11.76C-1.26,21.38-3.08,36.08,5.1,46.72c2.83,3.67,3.11,7,.96,11.1-1.27,2.43-2.92,4.74-4.36,6.72-.16.21-.33.43-.5.65-1.11,1.4-1.36,1.94-.75,2.59.53.56,2.14.92,3.6.81,5.73-.47,11.36-2.43,18.23-6.36,1.36-.78,3.22-.83,4.41-.64,3.51.55,7.06,1.24,10.48,1.89,1.15.22,2.29.44,3.44.66.01,0,.02,0,.03,0,.11.02.21.04.32.06.1,0,.19,0,.29,0h.58c12.1,0,22.71-3.86,31.55-11.48.29-.25.57-.5.86-.75,11.55-10.42,12.51-26.33,2.29-37.85Zm-9.38,35.93c-3.23,2.38-7.11,4.32-11.21,5.62-9.45,3-18.87,3.04-28,.14-3.2-1.02-5.87-.7-8.39.98-1.14.76-2.35,1.4-3.76,2.14-.69.36-1.43.74-2.23,1.19l-1.66.91.48-1.76c.14-.5.24-.91.33-1.27.17-.65.29-1.12.46-1.59,1.67-4.65,1.02-8.32-2.13-11.91-5.81-6.61-6.43-15.5-1.64-23.22,3.8-6.12,9.32-10.38,16.4-12.68,15.7-5.1,29.58-3.44,41.25,4.92,6.69,4.8,10.4,11.23,10.44,18.11.04,6.95-3.63,13.49-10.34,18.42Z"/>
  </g>
</svg>