<?xml version="1.0" encoding="UTF-8"?>
<svg id="Layer_2" data-name="Layer 2" xmlns="http://www.w3.org/2000/svg" viewBox="0 0 73.54 73.4">
  <defs>
    <style>
      .cls-1, .cls-2 {
        fill: #00a3e1;
        stroke: #f8f8f8;
        stroke-miterlimit: 10;
        stroke-width: 5px;
      }

      .cls-2 {
        stroke-linecap: round;
      }

      .cls-3 {
        fill: #f8f8f8;
        stroke-width: 0px;
      }
    </style>
  </defs>
  <g id="Colo_Opt2" data-name="Colo Opt2">
    <g>
      <path class="cls-3" d="m63.18,14.56c2.95,0,5.35,2.4,5.35,5.35v43.13c0,2.95-2.4,5.35-5.35,5.35H10.35c-2.95,0-5.35-2.4-5.35-5.35V19.91c0-2.95,2.4-5.35,5.35-5.35h52.83m0-5H10.35C4.64,9.56,0,14.19,0,19.91v43.13c0,5.72,4.64,10.35,10.35,10.35h52.83c5.72,0,10.35-4.64,10.35-10.35V19.91c0-5.72-4.64-10.35-10.35-10.35h0Z"/>
      <line class="cls-1" x1=".91" y1="30.21" x2="71.44" y2="30.21"/>
      <g>
        <line class="cls-2" x1="23.4" y1="2.5" x2="23.4" y2="17.79"/>
        <line class="cls-2" x1="50.13" y1="2.5" x2="50.13" y2="17.79"/>
      </g>
    </g>
  </g>
</svg>