<?xml version="1.0" encoding="UTF-8"?>
<svg id="Layer_2" data-name="Layer 2" xmlns="http://www.w3.org/2000/svg" viewBox="0 0 73.54 73.65">
  <defs>
    <style>
      .cls-1 {
        stroke-linecap: round;
      }

      .cls-1, .cls-2 {
        fill: #00a3e1;
        stroke: #f8f8f8;
        stroke-miterlimit: 10;
        stroke-width: 5.5px;
      }

      .cls-3 {
        fill: #f8f8f8;
        stroke-width: 0px;
      }
    </style>
  </defs>
  <g id="Colo_Opt2" data-name="Colo Opt2">
    <g>
      <path class="cls-3" d="m63.18,15.31c2.68,0,4.85,2.18,4.85,4.85v43.13c0,2.68-2.18,4.85-4.85,4.85H10.35c-2.68,0-4.85-2.18-4.85-4.85V20.16c0-2.68,2.18-4.85,4.85-4.85h52.83m0-5.5H10.35C4.64,9.81,0,14.44,0,20.16v43.13c0,5.72,4.64,10.35,10.35,10.35h52.83c5.72,0,10.35-4.64,10.35-10.35V20.16c0-5.72-4.64-10.35-10.35-10.35h0Z"/>
      <line class="cls-2" x1=".91" y1="30.46" x2="71.44" y2="30.46"/>
      <g>
        <line class="cls-1" x1="23.4" y1="2.75" x2="23.4" y2="18.04"/>
        <line class="cls-1" x1="50.13" y1="2.75" x2="50.13" y2="18.04"/>
      </g>
    </g>
  </g>
</svg>