<?xml version="1.0" encoding="UTF-8"?>
<svg id="Layer_2" data-name="Layer 2" xmlns="http://www.w3.org/2000/svg" viewBox="0 0 73.09 76.13">
  <defs>
    <style>
      .cls-1 {
        fill: #f8f8f8;
      }

      .cls-1, .cls-2 {
        stroke-width: 0px;
      }

      .cls-2 {
        fill: #fff;
      }
    </style>
  </defs>
  <g id="Colo_Opt2" data-name="Colo Opt2">
    <g>
      <path class="cls-2" d="m36.59,51.76c7.31-.03,13.52-6.26,13.54-13.59,0-3.56-1.48-7.09-4.08-9.7-2.6-2.59-5.97-4.02-9.5-4.02h-.05c-7.3.03-13.52,6.26-13.59,13.6-.03,3.49,1.45,6.99,4.06,9.61,2.6,2.61,6.09,4.11,9.57,4.11h.05Zm5.77-7.6c-1.56,1.51-3.63,2.33-5.84,2.33h-.18c-4.54-.09-8.24-3.86-8.25-8.38,0-2.22.88-4.32,2.48-5.92,1.61-1.61,3.73-2.49,5.97-2.49,2.3,0,4.39.89,5.95,2.47,1.58,1.6,2.42,3.75,2.4,6.05-.03,2.28-.93,4.38-2.53,5.94Zm-5.81-12.98v.25h.02v-.25h-.02Zm.04,20.57c7.31-.03,13.52-6.26,13.54-13.59,0-3.56-1.48-7.09-4.08-9.7-2.6-2.59-5.97-4.02-9.5-4.02h-.05c-7.3.03-13.52,6.26-13.59,13.6-.03,3.49,1.45,6.99,4.06,9.61,2.6,2.61,6.09,4.11,9.57,4.11h.05Zm5.77-7.6c-1.56,1.51-3.63,2.33-5.84,2.33h-.18c-4.54-.09-8.24-3.86-8.25-8.38,0-2.22.88-4.32,2.48-5.92,1.61-1.61,3.73-2.49,5.97-2.49,2.3,0,4.39.89,5.95,2.47,1.58,1.6,2.42,3.75,2.4,6.05-.03,2.28-.93,4.38-2.53,5.94Zm-5.81-12.98v.25h.02v-.25h-.02Zm34.07,12.69c-3.2-2.81-4.5-4.12-4.51-5.78,0-1.73,1.46-3.04,4.39-5.66.25-.22.47-.44.69-.66,1.94-1.92,2.38-3.94,1.34-6.01-2.33-4.64-4.56-8.64-6.82-12.27-1.41-2.26-3.65-2.97-6.67-2.11-.48.14-.96.27-1.43.4-1,.28-2.02.56-3.02.87-1.28.39-2.36.34-3.23-.16-.88-.5-1.48-1.44-1.8-2.79l-.24-1.02c-.25-1.08-.5-2.18-.78-3.24-.77-2.96-2.37-4.47-5.19-4.91-4.89-.76-9.49-.73-14.05.1-2.44.45-3.86,1.78-4.61,4.33-.25.84-.44,1.73-.63,2.59-.16.72-.32,1.43-.5,2.14-.37,1.39-1,2.32-1.91,2.82-.86.47-1.92.51-3.14.12-1.5-.48-3.06-.93-4.65-1.33-2.92-.74-4.97-.08-6.26,2.02-2.59,4.2-4.96,8.39-7.04,12.44-1.02,1.98-.62,3.99,1.18,5.81.72.73,1.49,1.44,2.24,2.13l.76.7c1.4,1.32,2.27,2.38,2.27,3.65,0,1.28-.9,2.37-2.35,3.73l-.47.44c-.76.7-1.49,1.38-2.21,2.07-2.02,1.94-2.49,4.01-1.37,6.18,2.04,3.97,4.35,8.03,7.07,12.41,1.25,2.01,3.23,2.65,6.07,1.98,1.63-.39,3.24-.88,4.88-1.39.51-.16,1-.24,1.46-.24.58,0,1.11.13,1.57.38.88.48,1.51,1.38,1.88,2.67.24.84.42,1.69.61,2.52.17.76.34,1.52.54,2.25.77,2.8,2.25,4.2,4.65,4.41.7.06,1.41.13,2.11.21h.08c2.61.27,5.31.54,7.89.36,7.55-.51,8.01-.91,9.85-8.51l.06-.25c.43-1.71.94-2.98,2.03-3.61,1.08-.63,2.4-.44,4.04.02,1.31.37,2.62.73,4.14,1.15l2.05.57c.34-.19.7-.38,1.09-.57,1.04-.53,2.22-1.12,2.76-1.94,2.89-4.38,5.27-8.95,7.22-12.84,1.06-2.11,0-4.03-1.09-5.27-.27-.31-.59-.66-.93-.97Zm-4.51,8.74c-.2.31-.37.66-.56,1.02-.14.29-.28.58-.44.86-3.02,5.3-3.45,5.48-9.32,3.97-5.08-1.31-9.66,1.33-11.12,6.45-1.58,5.52-1.94,6.13-7.59,6.13h-.73c-.18,0-.35,0-.53,0h-.21c-5.32-.07-5.71-.38-6.95-5.59-.67-2.8-2.11-4.93-4.18-6.15-2.06-1.22-4.63-1.46-7.41-.7-5.35,1.47-5.84,1.28-8.71-3.45-.18-.29-.35-.59-.51-.88-2.83-5.07-2.76-5.52,1.36-9.59,3.84-3.78,3.85-9.12.04-12.98-4.23-4.29-4.29-4.75-1.24-10.05.17-.29.34-.58.53-.87,2.76-4.44,3.22-4.62,8.14-3.24,2.96.83,5.64.62,7.75-.63,2.12-1.25,3.62-3.49,4.33-6.49,1.15-4.81,1.57-5.16,6.48-5.24h.24c.17,0,.34,0,.51,0,1,0,1.86,0,2.6.02.1,0,.2,0,.29.01.14,0,.27.01.39.02.04,0,.09,0,.13,0,.08,0,.16.01.24.02.15.01.3.03.44.05.07,0,.14.02.21.03.86.14,1.5.4,2.02.85.06.06.13.11.19.18.91.91,1.46,2.5,2.3,5.24,1.53,5.02,5.99,7.47,11.08,6.1,5.69-1.53,6.21-1.32,9.16,3.88.66,1.15,1.21,2.35,1.75,3.52.23.51.47,1.01.71,1.52l1.18,1.64-.93.55c-.3.18-.6.34-.91.51-.59.32-1.2.65-1.68,1.04-2.66,2.16-3.97,4.42-4.16,7.11-.22,3.15,1.1,5.85,3.92,8.02,2.62,2.02,3.03,4.42,1.22,7.13Zm-29.52-.86c7.31-.03,13.52-6.26,13.54-13.59,0-3.56-1.48-7.09-4.08-9.7-2.6-2.59-5.97-4.02-9.5-4.02h-.05c-7.3.03-13.52,6.26-13.59,13.6-.03,3.49,1.45,6.99,4.06,9.61,2.6,2.61,6.09,4.11,9.57,4.11h.05Zm5.77-7.6c-1.56,1.51-3.63,2.33-5.84,2.33h-.18c-4.54-.09-8.24-3.86-8.25-8.38,0-2.22.88-4.32,2.48-5.92,1.61-1.61,3.73-2.49,5.97-2.49,2.3,0,4.39.89,5.95,2.47,1.58,1.6,2.42,3.75,2.4,6.05-.03,2.28-.93,4.38-2.53,5.94Zm-5.81-12.98v.25h.02v-.25h-.02Zm.04,20.57c7.31-.03,13.52-6.26,13.54-13.59,0-3.56-1.48-7.09-4.08-9.7-2.6-2.59-5.97-4.02-9.5-4.02h-.05c-7.3.03-13.52,6.26-13.59,13.6-.03,3.49,1.45,6.99,4.06,9.61,2.6,2.61,6.09,4.11,9.57,4.11h.05Zm5.77-7.6c-1.56,1.51-3.63,2.33-5.84,2.33h-.18c-4.54-.09-8.24-3.86-8.25-8.38,0-2.22.88-4.32,2.48-5.92,1.61-1.61,3.73-2.49,5.97-2.49,2.3,0,4.39.89,5.95,2.47,1.58,1.6,2.42,3.75,2.4,6.05-.03,2.28-.93,4.38-2.53,5.94Zm-5.81-12.98v.25h.02v-.25h-.02Zm.04,20.57c7.31-.03,13.52-6.26,13.54-13.59,0-3.56-1.48-7.09-4.08-9.7-2.6-2.59-5.97-4.02-9.5-4.02h-.05c-7.3.03-13.52,6.26-13.59,13.6-.03,3.49,1.45,6.99,4.06,9.61,2.6,2.61,6.09,4.11,9.57,4.11h.05Zm5.77-7.6c-1.56,1.51-3.63,2.33-5.84,2.33h-.18c-4.54-.09-8.24-3.86-8.25-8.38,0-2.22.88-4.32,2.48-5.92,1.61-1.61,3.73-2.49,5.97-2.49,2.3,0,4.39.89,5.95,2.47,1.58,1.6,2.42,3.75,2.4,6.05-.03,2.28-.93,4.38-2.53,5.94Zm-5.81-12.98v.25h.02v-.25h-.02Z"/>
      <path class="cls-1" d="m70.62,43.87c-3.2-2.81-4.5-4.12-4.51-5.78,0-1.73,1.46-3.04,4.39-5.66.25-.22.47-.44.69-.66,1.94-1.92,2.38-3.94,1.34-6.01-2.33-4.64-4.56-8.64-6.82-12.27-1.41-2.26-3.65-2.97-6.67-2.11-.48.14-.96.27-1.43.4-1,.28-2.02.56-3.02.87-1.28.39-2.36.34-3.23-.16-.88-.5-1.48-1.44-1.8-2.79l-.24-1.02c-.25-1.08-.5-2.18-.78-3.24-.77-2.96-2.37-4.47-5.19-4.91-4.89-.76-9.49-.73-14.05.1-2.44.45-3.86,1.78-4.61,4.33-.25.84-.44,1.73-.63,2.59-.16.72-.32,1.43-.5,2.14-.37,1.39-1,2.32-1.91,2.82-.86.47-1.92.51-3.14.12-1.5-.48-3.06-.93-4.65-1.33-2.92-.74-4.97-.08-6.26,2.02-2.59,4.2-4.96,8.39-7.04,12.44-1.02,1.98-.62,3.99,1.18,5.81.72.73,1.49,1.44,2.24,2.13l.76.7c1.4,1.32,2.27,2.38,2.27,3.65,0,1.28-.9,2.37-2.35,3.73l-.47.44c-.76.7-1.49,1.38-2.21,2.07-2.02,1.94-2.49,4.01-1.37,6.18,2.04,3.97,4.35,8.03,7.07,12.41,1.25,2.01,3.23,2.65,6.07,1.98,1.63-.39,3.24-.88,4.88-1.39.51-.16,1-.24,1.46-.24.58,0,1.11.13,1.57.38.88.48,1.51,1.38,1.88,2.67.24.84.42,1.69.61,2.52.17.76.34,1.52.54,2.25.77,2.8,2.25,4.2,4.65,4.41.7.06,1.41.13,2.11.21h.08c2.61.27,5.31.54,7.89.36,7.55-.51,8.01-.91,9.85-8.51l.06-.25c.43-1.71.94-2.98,2.03-3.61,1.08-.63,2.4-.44,4.04.02,1.31.37,2.62.73,4.14,1.15l2.05.57c.34-.19.7-.38,1.09-.57,1.04-.53,2.22-1.12,2.76-1.94,2.89-4.38,5.27-8.95,7.22-12.84,1.06-2.11,0-4.03-1.09-5.27-.27-.31-.59-.66-.93-.97Zm-4.51,8.74c-.2.31-.37.66-.56,1.02-.14.29-.28.58-.44.86-3.02,5.3-3.45,5.48-9.32,3.97-5.08-1.31-9.66,1.33-11.12,6.45-1.58,5.52-1.94,6.13-7.59,6.13h-.73c-.18,0-.35,0-.53,0h-.21c-5.32-.07-5.71-.38-6.95-5.59-.67-2.8-2.11-4.93-4.18-6.15-2.06-1.22-4.63-1.46-7.41-.7-5.35,1.47-5.84,1.28-8.71-3.45-.18-.29-.35-.59-.51-.88-2.83-5.07-2.76-5.52,1.36-9.59,3.84-3.78,3.85-9.12.04-12.98-4.23-4.29-4.29-4.75-1.24-10.05.17-.29.34-.58.53-.87,2.76-4.44,3.22-4.62,8.14-3.24,2.96.83,5.64.62,7.75-.63,2.12-1.25,3.62-3.49,4.33-6.49,1.15-4.81,1.57-5.16,6.48-5.24h.24c.17,0,.34,0,.51,0,1,0,1.86,0,2.6.02.1,0,.2,0,.29.01.14,0,.27.01.39.02.04,0,.09,0,.13,0,.08,0,.16.01.24.02.15.01.3.03.44.05.07,0,.14.02.21.03.86.14,1.5.4,2.02.85.06.06.13.11.19.18.91.91,1.46,2.5,2.3,5.24,1.53,5.02,5.99,7.47,11.08,6.1,5.69-1.53,6.21-1.32,9.16,3.88.66,1.15,1.21,2.35,1.75,3.52.23.51.47,1.01.71,1.52l1.18,1.64-.93.55c-.3.18-.6.34-.91.51-.59.32-1.2.65-1.68,1.04-2.66,2.16-3.97,4.42-4.16,7.11-.22,3.15,1.1,5.85,3.92,8.02,2.62,2.02,3.03,4.42,1.22,7.13Z"/>
      <g>
        <path class="cls-1" d="m36.59,51.76c7.31-.03,13.52-6.26,13.54-13.59,0-3.56-1.48-7.09-4.08-9.7-2.6-2.59-5.97-4.02-9.5-4.02h-.05c-7.3.03-13.52,6.26-13.59,13.6-.03,3.49,1.45,6.99,4.06,9.61,2.6,2.61,6.09,4.11,9.57,4.11h.05Zm5.77-7.6c-1.56,1.51-3.63,2.33-5.84,2.33h-.18c-4.54-.09-8.24-3.86-8.25-8.38,0-2.22.88-4.32,2.48-5.92,1.61-1.61,3.73-2.49,5.97-2.49,2.3,0,4.39.89,5.95,2.47,1.58,1.6,2.42,3.75,2.4,6.05-.03,2.28-.93,4.38-2.53,5.94Z"/>
        <path class="cls-1" d="m36.56,31.18h0v.25h.02v-.25Zm0,0h0v.25h.02v-.25Zm0,0h0v.25h.02v-.25Zm0,0h0v.25h.02v-.25Zm0,0h0v.25h.02v-.25Zm0,0h0v.25h.02v-.25Zm0,0h0v.25h.02v-.25Z"/>
      </g>
      <g>
        <path class="cls-2" d="m36.57,31.43h-.02v-.25h0v.25Z"/>
        <path class="cls-1" d="m36.56,31.18h0v.25h.02v-.25Z"/>
      </g>
    </g>
  </g>
</svg>