<?xml version="1.0" encoding="UTF-8"?>
<svg id="Layer_2" data-name="Layer 2" xmlns="http://www.w3.org/2000/svg" viewBox="0 0 81.97 72.74">
  <defs>
    <style>
      .cls-1 {
        fill: #f8f8f8;
      }

      .cls-1, .cls-2 {
        stroke-width: 0px;
      }

      .cls-2 {
        fill: #fff;
      }
    </style>
  </defs>
  <g id="Colo_Opt2" data-name="Colo Opt2">
    <g>
      <path class="cls-2" d="m81,33.12c-.32-.33-.67-.62-1.04-.93l-.31-.26L44.6,2.22c-3.51-2.97-3.78-2.97-7.35.05l-.64.54c-7.93,6.72-15.86,13.45-23.79,20.17-1.05.89-2.11,1.78-3.16,2.67-2.8,2.36-5.69,4.8-8.5,7.25-1.33,1.17-1.54,2.74-.51,3.99.35.43,1.44,1.76,3.82.1.68-.48,1.34-.99,2.17-1.65.42-.33.89-.7,1.42-1.12l1.13-.87v4.51c0,2.33,0,4.66,0,6.99,0,5.16-.02,10.49.02,15.74.05,7.8,4.37,12.1,12.15,12.11,11.67.02,25.49.03,39.47,0,7.5-.02,11.82-4.35,11.84-11.9.01-5.39.01-10.77,0-16.16v-11.27l1.12.84c.56.42,1.05.79,1.51,1.14.9.69,1.68,1.29,2.47,1.83,1.4.98,2.6.84,3.56-.4.96-1.24.85-2.47-.33-3.68Zm-32.43,34.03h-15.23v-22.09h15.23v22.09Zm18.71-8.67v2.13c-.01,4.85-1.83,6.66-6.69,6.68-.69,0-1.39,0-2.09,0h-4.41v-7.13c0-4.96,0-9.78,0-14.6,0-4.28-1.83-6.1-6.11-6.12-5.22-.01-9.85-.01-14.16,0-4.07.02-5.98,1.94-6.01,6.04-.03,4.29-.02,8.64-.02,12.86,0,1.82,0,3.65,0,5.47v3.41h-.7c-.85,0-1.67.01-2.49.03-1.85.03-3.6.07-5.37-.08-2.92-.24-4.61-2.45-4.64-6.06-.03-3.77-.02-7.6-.02-11.3,0-1.57,0-3.14,0-4.71,0-1.21,0-2.42,0-3.63,0-3.53-.01-7.18.04-10.77.02-.94.32-2.28,1.1-2.96,6.56-5.64,13.29-11.34,19.81-16.86l5.29-4.48.45.33c.2.15.39.29.59.42.4.28.79.55,1.16.86l4.19,3.53c6.01,5.07,12.23,10.32,18.27,15.56.99.85,1.74,2.48,1.75,3.8.11,9.19.09,18.54.06,27.57Z"/>
      <path class="cls-1" d="m81,33.12c-.32-.33-.67-.62-1.04-.93l-.31-.26L44.6,2.22c-3.51-2.97-3.78-2.97-7.35.05l-.64.54c-7.93,6.72-15.86,13.45-23.79,20.17-1.05.89-2.11,1.78-3.16,2.67-2.8,2.36-5.69,4.8-8.5,7.25-1.33,1.17-1.54,2.74-.51,3.99.35.43,1.44,1.76,3.82.1.68-.48,1.34-.99,2.17-1.65.42-.33.89-.7,1.42-1.12l1.13-.87v4.51c0,2.33,0,4.66,0,6.99,0,5.16-.02,10.49.02,15.74.05,7.8,4.37,12.1,12.15,12.11,11.67.02,25.49.03,39.47,0,7.5-.02,11.82-4.35,11.84-11.9.01-5.39.01-10.77,0-16.16v-11.27l1.12.84c.56.42,1.05.79,1.51,1.14.9.69,1.68,1.29,2.47,1.83,1.4.98,2.6.84,3.56-.4.96-1.24.85-2.47-.33-3.68Zm-32.43,34.03h-15.23v-22.09h15.23v22.09Zm18.71-8.67v2.13c-.01,4.85-1.83,6.66-6.69,6.68-.69,0-1.39,0-2.09,0h-4.41v-7.13c0-4.96,0-9.78,0-14.6,0-4.28-1.83-6.1-6.11-6.12-5.22-.01-9.85-.01-14.16,0-4.07.02-5.98,1.94-6.01,6.04-.03,4.29-.02,8.64-.02,12.86,0,1.82,0,3.65,0,5.47v3.41h-.7c-.85,0-1.67.01-2.49.03-1.85.03-3.6.07-5.37-.08-2.92-.24-4.61-2.45-4.64-6.06-.03-3.77-.02-7.6-.02-11.3,0-1.57,0-3.14,0-4.71,0-1.21,0-2.42,0-3.63,0-3.53-.01-7.18.04-10.77.02-.94.32-2.28,1.1-2.96,6.56-5.64,13.29-11.34,19.81-16.86l5.29-4.48.45.33c.2.15.39.29.59.42.4.28.79.55,1.16.86l4.19,3.53c6.01,5.07,12.23,10.32,18.27,15.56.99.85,1.74,2.48,1.75,3.8.11,9.19.09,18.54.06,27.57Z"/>
    </g>
  </g>
</svg>