<?xml version="1.0" encoding="UTF-8"?>
<svg id="Layer_2" data-name="Layer 2" xmlns="http://www.w3.org/2000/svg" viewBox="0 0 237.85 179.9">
  <defs>
    <style>
      .cls-1 {
        fill: #979797;
      }

      .cls-1, .cls-2 {
        stroke-width: 0px;
      }

      .cls-2 {
        fill: #fff;
      }
    </style>
  </defs>
  <g id="Invite_Link" data-name="Invite Link">
    <g>
      <path class="cls-2" d="m232.46,4.39c-3.23-2.07-7.81-2.77-11.78-2.81C158.67.96,96.64.53,34.62.11c-7.6-.05-15.24-.35-22.78.35C2.26,1.32-2.77,10.78,1.58,19.31c1.41,2.77,3.82,5.19,6.22,7.26,19.16,16.62,38.37,33.2,57.74,49.58,3.18,2.69,4.28,5.3,3.93,9.43-1.17,13.32-1.88,26.68-2.75,40.04-.84,12.88-1.87,25.77-2.43,38.67-.5,11.18,9.05,18.74,19.7,14.34,1.7-1.53,4.56-3.83,7.11-6.44,23.61-24.33,47.17-48.71,70.73-73.08,23.39-24.2,46.81-48.39,70.15-72.64,7.54-7.85,7.97-17.26.49-22.08ZM14.77,13.17c63.1.43,126.2.85,189.31,1.28.12.51.26,1.02.4,1.54l-10.11,4.25c-36.61,15.38-73.24,30.66-109.75,46.24-4.84,2.06-8.03,1.98-12.19-1.7C53.3,47.86,33.81,31.36,14.77,13.17Zm63.26,153.59c-.12-3.01-.32-4.53-.22-6.02,1.61-24.6,3.31-49.18,4.81-73.79.22-3.6,1.15-5.77,4.79-7.28,39.85-16.57,79.62-33.34,119.42-50.04.98-.41,2.03-.64,3.77.03-43.86,45.37-87.73,90.73-132.57,137.1Z"/>
      <path class="cls-1" d="m232.46,4.39c-3.23-2.07-7.81-2.77-11.78-2.81C158.67.96,96.64.53,34.62.11c-7.6-.05-15.24-.35-22.78.35C2.26,1.32-2.77,10.78,1.58,19.31c1.41,2.77,3.82,5.19,6.22,7.26,19.16,16.62,38.37,33.2,57.74,49.58,3.18,2.69,4.28,5.3,3.93,9.43-1.17,13.32-1.88,26.68-2.75,40.04-.84,12.88-1.87,25.77-2.43,38.67-.5,11.18,9.05,18.74,19.7,14.34,1.7-1.53,4.56-3.83,7.11-6.44,23.61-24.33,47.17-48.71,70.73-73.08,23.39-24.2,46.81-48.39,70.15-72.64,7.54-7.85,7.97-17.26.49-22.08ZM14.77,13.17c63.1.43,126.2.85,189.31,1.28.12.51.26,1.02.4,1.54l-10.11,4.25c-36.61,15.38-73.24,30.66-109.75,46.24-4.84,2.06-8.03,1.98-12.19-1.7C53.3,47.86,33.81,31.36,14.77,13.17Zm63.26,153.59c-.12-3.01-.32-4.53-.22-6.02,1.61-24.6,3.31-49.18,4.81-73.79.22-3.6,1.15-5.77,4.79-7.28,39.85-16.57,79.62-33.34,119.42-50.04.98-.41,2.03-.64,3.77.03-43.86,45.37-87.73,90.73-132.57,137.1Z"/>
    </g>
  </g>
</svg>