<?xml version="1.0" encoding="UTF-8"?>
<svg id="Layer_2" data-name="Layer 2" xmlns="http://www.w3.org/2000/svg" viewBox="0 0 43.21 33.4">
  <defs>
    <style>
      .cls-1 {
        fill: #333;
      }

      .cls-1, .cls-2 {
        stroke-width: 0px;
      }

      .cls-2 {
        fill: #fff;
      }
    </style>
  </defs>
  <g id="Chat">
    <g>
      <path class="cls-2" d="m42.16.43c-.6-.35-1.44-.45-2.16-.43C28.74.33,17.47.69,6.2,1.05c-1.38.04-2.77.05-4.14.22C.33,1.5-.52,3.26.33,4.77c.28.49.73.92,1.18,1.27,3.6,2.88,7.2,5.76,10.84,8.6.6.47.81.93.78,1.68-.12,2.43-.15,4.86-.22,7.29-.06,2.35-.16,4.69-.17,7.04-.01,2.03,1.78,3.34,3.68,2.46.3-.29.8-.73,1.25-1.22,4.12-4.59,8.22-9.18,12.33-13.77,4.08-4.56,8.16-9.12,12.23-13.69,1.31-1.48,1.32-3.19-.07-4.01ZM2.69,3.56c11.46-.37,22.93-.74,34.39-1.11.03.09.06.18.08.28l-1.81.84c-6.54,3.05-13.09,6.09-19.61,9.17-.86.41-1.44.42-2.23-.22-3.59-2.93-7.25-5.79-10.84-8.96Zm12.58,27.45c-.04-.55-.09-.82-.08-1.09.12-4.48.25-8.96.35-13.44.02-.65.17-1.06.82-1.36,7.12-3.29,14.23-6.62,21.34-9.93.17-.08.36-.13.69-.02-7.65,8.55-15.29,17.1-23.11,25.84Z"/>
      <path class="cls-1" d="m42.16.43c-.6-.35-1.44-.45-2.16-.43C28.74.33,17.47.69,6.2,1.05c-1.38.04-2.77.05-4.14.22C.33,1.5-.52,3.26.33,4.77c.28.49.73.92,1.18,1.27,3.6,2.88,7.2,5.76,10.84,8.6.6.47.81.93.78,1.68-.12,2.43-.15,4.86-.22,7.29-.06,2.35-.16,4.69-.17,7.04-.01,2.03,1.78,3.34,3.68,2.46.3-.29.8-.73,1.25-1.22,4.12-4.59,8.22-9.18,12.33-13.77,4.08-4.56,8.16-9.12,12.23-13.69,1.31-1.48,1.32-3.19-.07-4.01ZM2.69,3.56c11.46-.37,22.93-.74,34.39-1.11.03.09.06.18.08.28l-1.81.84c-6.54,3.05-13.09,6.09-19.61,9.17-.86.41-1.44.42-2.23-.22-3.59-2.93-7.25-5.79-10.84-8.96Zm12.58,27.45c-.04-.55-.09-.82-.08-1.09.12-4.48.25-8.96.35-13.44.02-.65.17-1.06.82-1.36,7.12-3.29,14.23-6.62,21.34-9.93.17-.08.36-.13.69-.02-7.65,8.55-15.29,17.1-23.11,25.84Z"/>
    </g>
  </g>
</svg>